<svg width="25" height="12" viewBox="0 0 25 12" fill="none" xmlns="http://www.w3.org/2000/svg">
<path opacity="0.35" d="M2.66667 0.5H19.3333C20.53 0.5 21.5 1.47005 21.5 2.66667V8.66667C21.5 9.86329 20.53 10.8333 19.3333 10.8333H2.66667C1.47005 10.8333 0.5 9.86328 0.5 8.66667V2.66666C0.5 1.47005 1.47005 0.5 2.66667 0.5Z" stroke="#63656A"/>
<path opacity="0.4" d="M23 3.66667V7.66667C23.8047 7.32789 24.328 6.5398 24.328 5.66667C24.328 4.79353 23.8047 4.00544 23 3.66667" fill="white"/>
<path d="M2 3.1C2 2.49249 2.49249 2 3.1 2H18.9C19.5075 2 20 2.49249 20 3.1V8.23333C20 8.84085 19.5075 9.33333 18.9 9.33333H3.1C2.49249 9.33333 2 8.84085 2 8.23333V3.1Z" fill="#63656A"/>
</svg>
