<svg width="16" height="12" viewBox="0 0 16 12" fill="none" xmlns="http://www.w3.org/2000/svg">
<path fill-rule="evenodd" clip-rule="evenodd" d="M8.33067 2.60814C10.5466 2.60823 12.6777 3.45967 14.2837 4.98647C14.4046 5.10435 14.5979 5.10286 14.717 4.98314L15.873 3.81647C15.9333 3.75575 15.9669 3.6735 15.9664 3.58792C15.9659 3.50234 15.9313 3.42048 15.8703 3.36047C11.6552 -0.679076 5.00543 -0.679076 0.790334 3.36047C0.729275 3.42044 0.694631 3.50227 0.694068 3.58785C0.693505 3.67343 0.727069 3.7557 0.787334 3.81647L1.94367 4.98314C2.0627 5.10304 2.25614 5.10453 2.377 4.98647C3.98315 3.45957 6.11456 2.60813 8.33067 2.60814ZM8.33067 6.4038C9.54816 6.40373 10.7222 6.85626 11.6247 7.67347C11.7467 7.78945 11.939 7.78694 12.058 7.6678L13.2127 6.50114C13.2735 6.43994 13.3072 6.35693 13.3063 6.27066C13.3055 6.1844 13.27 6.10208 13.208 6.04214C10.4598 3.48576 6.20387 3.48576 3.45567 6.04214C3.39359 6.10208 3.35817 6.18444 3.35736 6.27073C3.35654 6.35702 3.3904 6.44003 3.45133 6.50114L4.60567 7.6678C4.72466 7.78694 4.91694 7.78945 5.039 7.67347C5.94087 6.8568 7.11398 6.40431 8.33067 6.4038ZM10.6437 8.95762C10.6454 9.04413 10.6114 9.12753 10.5497 9.18814L8.55233 11.2038C8.49378 11.263 8.41396 11.2964 8.33067 11.2964C8.24738 11.2964 8.16755 11.263 8.109 11.2038L6.11133 9.18814C6.04962 9.12749 6.01567 9.04406 6.0175 8.95755C6.01933 8.87104 6.05678 8.78913 6.121 8.73114C7.39657 7.65225 9.26476 7.65225 10.5403 8.73114C10.6045 8.78917 10.6419 8.87112 10.6437 8.95762Z" fill="white"/>
</svg>
